<svg xmlns="http://www.w3.org/2000/svg" width="128" height="128" viewBox="0 0 128 128">
  <title>FISH BONE</title>
  <g>
    <path d="M114.091,22.97a60.025,60.025,0,0,0-50.214-3.252,5.5,5.5,0,0,0-3.138,7.03A122.861,122.861,0,0,0,69.266,44.98c-1.2.887-2.408,1.8-3.633,2.752-2.607-3.215-5.381-6.326-8.26-9.264a5.167,5.167,0,0,0-7.458,7.151c2.661,2.829,5.232,5.791,7.658,8.82-2.048,1.807-4.1,3.711-6.125,5.687a83.107,83.107,0,0,0-8.374-5.966,5.206,5.206,0,0,0-5.767,8.664c2.239,1.568,4.475,3.273,6.665,5.084-1.769,1.963-3.45,3.907-5.02,5.8-2.137-1.253-4.284-2.395-6.395-3.4a5.1,5.1,0,1,0-4.388,9.2c1.46.693,2.964,1.478,4.49,2.342-.765,1.054-1.465,2.048-2.127,3A17.77,17.77,0,0,0,11.27,93.541a1.751,1.751,0,0,0,.681,2.38,17.617,17.617,0,0,0,17.591-.266,17.668,17.668,0,0,0,6.684,16.277,1.751,1.751,0,0,0,2.456-.309,17.77,17.77,0,0,0,.427-21.084c.741-1.029,1.473-2.031,2.2-3a75.276,75.276,0,0,1,5.871,4.988,5.1,5.1,0,0,0,7.7-.831,1.544,1.544,0,0,0,.086-.14,5.087,5.087,0,0,0-.823-6.477c-2.055-1.926-4.229-3.772-6.481-5.5,1.283-1.513,2.635-3.051,4.043-4.6,2.122,2.143,4.163,4.389,6.083,6.692a5.208,5.208,0,0,0,8.171-6.452,84.363,84.363,0,0,0-6.767-7.98c1.494-1.451,3.035-2.894,4.658-4.361,2.067,3.011,4,6.063,5.773,9.1a5.165,5.165,0,0,0,8.973-5.118c-2.018-3.628-4.274-7.255-6.719-10.8.974-.779,1.954-1.538,2.932-2.286A123.544,123.544,0,0,0,84.2,65.777a5.436,5.436,0,0,0,7.337.739,67.109,67.109,0,0,0,25.241-37.358A5.476,5.476,0,0,0,114.091,22.97ZM15.349,93.661a14.282,14.282,0,0,1,13.257-5.6,5.146,5.146,0,0,0,.28,3.842A14.161,14.161,0,0,1,15.349,93.661Zm21.618,14.258a14.164,14.164,0,0,1-3.71-13.171,5.041,5.041,0,0,0,3.6-1.272A14.288,14.288,0,0,1,36.967,107.919Zm31.1-51.189a130.525,130.525,0,0,1,7.465,11.839,1.666,1.666,0,0,1-2.894,1.65c-2.138-3.666-4.514-7.357-7.062-10.968a1.749,1.749,0,0,0-2.591-.3c-2.689,2.383-5.146,4.681-7.512,7.027a1.75,1.75,0,0,0,0,2.482,80.934,80.934,0,0,1,7.678,8.865,1.724,1.724,0,0,1-.12,2.17,1.684,1.684,0,0,1-2.559-.054,109.315,109.315,0,0,0-7.612-8.233,1.791,1.791,0,0,0-1.265-.5,1.752,1.752,0,0,0-1.24.56c-2.344,2.526-4.557,5.044-6.576,7.485a1.75,1.75,0,0,0,.312,2.525,84.364,84.364,0,0,1,7.647,6.353,1.6,1.6,0,0,1,.245,2.08c-.018.026-.035.053-.051.08a1.594,1.594,0,0,1-2.353.194,79.148,79.148,0,0,0-7.589-6.3,1.75,1.75,0,0,0-2.422.351C38.228,85.792,36.9,87.6,35.5,89.56L34.8,90.568a1.627,1.627,0,0,1-2.678-1.848c.185-.278.37-.556.61-.886,1.145-1.683,2.456-3.524,3.9-5.473a1.749,1.749,0,0,0-.508-2.543c-2.189-1.31-4.358-2.477-6.446-3.468a1.6,1.6,0,1,1,1.375-2.88,82.551,82.551,0,0,1,7.393,4.015,1.753,1.753,0,0,0,2.27-.393c2.142-2.644,4.521-5.392,7.069-8.168a1.75,1.75,0,0,0-.152-2.514c-2.711-2.319-5.508-4.49-8.312-6.452a1.706,1.706,0,0,1,1.9-2.832,79.626,79.626,0,0,1,9.207,6.692,1.75,1.75,0,0,0,2.361-.1c2.748-2.728,5.554-5.332,8.34-7.737a1.749,1.749,0,0,0,.235-2.4c-2.788-3.565-5.78-7.051-8.893-10.36a1.666,1.666,0,0,1,2.4-2.307,128.8,128.8,0,0,1,9.106,10.349,1.751,1.751,0,0,0,2.461.288c1.556-1.233,3.095-2.4,4.614-3.533.029.048.056.1.086.144.546.893,1.123,1.8,1.709,2.7-1.488,1.135-2.979,2.3-4.451,3.5A1.75,1.75,0,0,0,68.071,56.73Zm45.315-28.449v0A63.628,63.628,0,0,1,89.443,63.708a1.978,1.978,0,0,1-2.635-.261A119.782,119.782,0,0,1,64.02,25.53a1.991,1.991,0,0,1,1.118-2.547,56.561,56.561,0,0,1,47.282,3.062A1.979,1.979,0,0,1,113.386,28.281Z"/>
    <path d="M92.163,29.7l-2.545-1.085L90.7,26.067a1.75,1.75,0,0,0-3.22-1.372L86.4,27.24l-2.546-1.084a1.75,1.75,0,1,0-1.372,3.22l2.546,1.084-1.085,2.545a1.75,1.75,0,0,0,3.22,1.372l1.084-2.545,2.546,1.085a1.75,1.75,0,1,0,1.372-3.22Z"/>
  </g>
</svg>
